<svg id="cross_icon" viewBox="0 0 24 24" xmlns="http://www.w3.org/2000/svg">
    <g>
        <path
            d="M 13.414 12 l 5.793 -5.793 c 0.39 -0.39 0.39 -1.023 0 -1.414 s -1.023 -0.39 -1.414 0 L 12 10.586 L 6.207 4.793 c -0.39 -0.39 -1.023 -0.39 -1.414 0 s -0.39 1.023 0 1.414 L 10.586 12 l -5.793 5.793 c -0.39 0.39 -0.39 1.023 0 1.414 c 0.195 0.195 0.45 0.293 0.707 0.293 s 0.512 -0.098 0.707 -0.293 L 12 13.414 l 5.793 5.793 c 0.195 0.195 0.45 0.293 0.707 0.293 s 0.512 -0.098 0.707 -0.293 c 0.39 -0.39 0.39 -1.023 0 -1.414 L 13.414 12 Z">
        </path>
    </g>
</svg>